<svg width="948" height="73" viewBox="0 0 948 73" fill="none" xmlns="http://www.w3.org/2000/svg">
<path d="M22.3828 30.5234L37.5781 1.89062H44.7266L25.7031 36.8516V59H19.0625V37.1641L0 1.89062H7.26562L22.3828 30.5234ZM88.3984 59L81.3672 40.875H58.4766L51.4844 59H44.7656L67.1094 1.65625H73.0859L95.2734 59H88.3984ZM79.375 34.9766L72.6953 16.9688C72.5391 16.5 72.2786 15.7318 71.9141 14.6641C71.5755 13.5964 71.224 12.4896 70.8594 11.3438C70.4948 10.1979 70.1953 9.27344 69.9609 8.57031C69.7005 9.63802 69.4141 10.7057 69.1016 11.7734C68.8151 12.8151 68.5286 13.7917 68.2422 14.7031C67.9557 15.5885 67.7083 16.3438 67.5 16.9688L60.7031 34.9766H79.375ZM135.43 43.8047C135.43 47.1901 134.583 50.0807 132.891 52.4766C131.224 54.8464 128.88 56.6562 125.859 57.9062C122.839 59.1562 119.284 59.7812 115.195 59.7812C113.034 59.7812 110.99 59.6771 109.062 59.4688C107.135 59.2604 105.365 58.9609 103.75 58.5703C102.135 58.1797 100.716 57.6979 99.4922 57.125V50.7578C101.445 51.5651 103.828 52.3203 106.641 53.0234C109.453 53.7005 112.396 54.0391 115.469 54.0391C118.333 54.0391 120.755 53.6615 122.734 52.9062C124.714 52.125 126.211 51.0182 127.227 49.5859C128.268 48.1276 128.789 46.3828 128.789 44.3516C128.789 42.3984 128.359 40.7708 127.5 39.4688C126.641 38.1406 125.208 36.9427 123.203 35.875C121.224 34.7812 118.516 33.6224 115.078 32.3984C112.656 31.5391 110.521 30.6016 108.672 29.5859C106.823 28.5443 105.273 27.3724 104.023 26.0703C102.773 24.7682 101.823 23.2578 101.172 21.5391C100.547 19.8203 100.234 17.8542 100.234 15.6406C100.234 12.5938 101.003 9.98958 102.539 7.82812C104.102 5.64062 106.25 3.97396 108.984 2.82812C111.745 1.65625 114.909 1.07031 118.477 1.07031C121.523 1.07031 124.336 1.35677 126.914 1.92969C129.518 2.5026 131.901 3.27083 134.062 4.23438L131.992 9.9375C129.935 9.07812 127.747 8.36198 125.43 7.78906C123.138 7.21615 120.768 6.92969 118.32 6.92969C115.872 6.92969 113.802 7.29427 112.109 8.02344C110.443 8.72656 109.167 9.72917 108.281 11.0312C107.396 12.3333 106.953 13.8828 106.953 15.6797C106.953 17.6849 107.37 19.3516 108.203 20.6797C109.062 22.0078 110.417 23.1927 112.266 24.2344C114.141 25.25 116.615 26.3177 119.688 27.4375C123.047 28.6615 125.898 29.9635 128.242 31.3438C130.586 32.6979 132.37 34.3646 133.594 36.3438C134.818 38.2969 135.43 40.7839 135.43 43.8047ZM179.336 43.8047C179.336 47.1901 178.49 50.0807 176.797 52.4766C175.13 54.8464 172.786 56.6562 169.766 57.9062C166.745 59.1562 163.19 59.7812 159.102 59.7812C156.94 59.7812 154.896 59.6771 152.969 59.4688C151.042 59.2604 149.271 58.9609 147.656 58.5703C146.042 58.1797 144.622 57.6979 143.398 57.125V50.7578C145.352 51.5651 147.734 52.3203 150.547 53.0234C153.359 53.7005 156.302 54.0391 159.375 54.0391C162.24 54.0391 164.661 53.6615 166.641 52.9062C168.62 52.125 170.117 51.0182 171.133 49.5859C172.174 48.1276 172.695 46.3828 172.695 44.3516C172.695 42.3984 172.266 40.7708 171.406 39.4688C170.547 38.1406 169.115 36.9427 167.109 35.875C165.13 34.7812 162.422 33.6224 158.984 32.3984C156.562 31.5391 154.427 30.6016 152.578 29.5859C150.729 28.5443 149.18 27.3724 147.93 26.0703C146.68 24.7682 145.729 23.2578 145.078 21.5391C144.453 19.8203 144.141 17.8542 144.141 15.6406C144.141 12.5938 144.909 9.98958 146.445 7.82812C148.008 5.64062 150.156 3.97396 152.891 2.82812C155.651 1.65625 158.815 1.07031 162.383 1.07031C165.43 1.07031 168.242 1.35677 170.82 1.92969C173.424 2.5026 175.807 3.27083 177.969 4.23438L175.898 9.9375C173.841 9.07812 171.654 8.36198 169.336 7.78906C167.044 7.21615 164.674 6.92969 162.227 6.92969C159.779 6.92969 157.708 7.29427 156.016 8.02344C154.349 8.72656 153.073 9.72917 152.188 11.0312C151.302 12.3333 150.859 13.8828 150.859 15.6797C150.859 17.6849 151.276 19.3516 152.109 20.6797C152.969 22.0078 154.323 23.1927 156.172 24.2344C158.047 25.25 160.521 26.3177 163.594 27.4375C166.953 28.6615 169.805 29.9635 172.148 31.3438C174.492 32.6979 176.276 34.3646 177.5 36.3438C178.724 38.2969 179.336 40.7839 179.336 43.8047ZM191.016 59V1.89062H197.656V59H191.016ZM258.008 59H250.352L219.219 11.0312H218.906C218.984 12.3073 219.076 13.7656 219.18 15.4062C219.284 17.0208 219.362 18.7526 219.414 20.6016C219.492 22.4245 219.531 24.2865 219.531 26.1875V59H213.359V1.89062H220.977L251.992 49.7031H252.266C252.214 48.7917 252.148 47.5026 252.07 45.8359C251.992 44.1432 251.914 42.3333 251.836 40.4062C251.784 38.4531 251.758 36.6432 251.758 34.9766V1.89062H258.008V59ZM305.391 59H273.594V1.89062H305.391V7.75H280.234V26.2266H303.945V32.0078H280.234V53.1406H305.391V59ZM388.359 30.3672C388.359 34.7682 387.799 38.7786 386.68 42.3984C385.56 45.9922 383.893 49.0911 381.68 51.6953C379.492 54.2734 376.771 56.2656 373.516 57.6719C370.26 59.0781 366.484 59.7812 362.188 59.7812C357.76 59.7812 353.893 59.0781 350.586 57.6719C347.305 56.2656 344.57 54.2604 342.383 51.6562C340.221 49.0521 338.594 45.9401 337.5 42.3203C336.432 38.7005 335.898 34.6901 335.898 30.2891C335.898 24.4557 336.862 19.3385 338.789 14.9375C340.716 10.5365 343.633 7.11198 347.539 4.66406C351.471 2.21615 356.393 0.992188 362.305 0.992188C367.956 0.992188 372.708 2.20312 376.562 4.625C380.443 7.04688 383.372 10.4583 385.352 14.8594C387.357 19.2344 388.359 24.4036 388.359 30.3672ZM342.891 30.3672C342.891 35.2109 343.581 39.4036 344.961 42.9453C346.341 46.487 348.451 49.2214 351.289 51.1484C354.154 53.0755 357.786 54.0391 362.188 54.0391C366.615 54.0391 370.234 53.0755 373.047 51.1484C375.885 49.2214 377.982 46.487 379.336 42.9453C380.69 39.4036 381.367 35.2109 381.367 30.3672C381.367 22.9974 379.818 17.2422 376.719 13.1016C373.646 8.9349 368.841 6.85156 362.305 6.85156C357.878 6.85156 354.232 7.80208 351.367 9.70312C348.503 11.6042 346.367 14.3125 344.961 17.8281C343.581 21.3177 342.891 25.4974 342.891 30.3672ZM407.734 59H401.094V1.89062H432.891V7.75H407.734V28.6875H431.367V34.5078H407.734V59ZM491.953 30.3672C491.953 35.0547 491.315 39.2995 490.039 43.1016C488.763 46.9036 486.862 50.1198 484.336 52.75C481.836 55.3802 478.711 57.2943 474.961 58.4922L488.398 72.5938H478.906L467.852 59.7031C467.513 59.7031 467.161 59.7161 466.797 59.7422C466.458 59.7682 466.12 59.7812 465.781 59.7812C461.354 59.7812 457.487 59.0781 454.18 57.6719C450.898 56.2656 448.164 54.2604 445.977 51.6562C443.815 49.0521 442.188 45.9401 441.094 42.3203C440.026 38.7005 439.492 34.6901 439.492 30.2891C439.492 24.4557 440.456 19.3385 442.383 14.9375C444.31 10.5365 447.227 7.11198 451.133 4.66406C455.065 2.21615 459.987 0.992188 465.898 0.992188C471.549 0.992188 476.302 2.20312 480.156 4.625C484.036 7.04688 486.966 10.4583 488.945 14.8594C490.951 19.2344 491.953 24.4036 491.953 30.3672ZM446.484 30.3672C446.484 35.2109 447.174 39.4036 448.555 42.9453C449.935 46.487 452.044 49.2214 454.883 51.1484C457.747 53.0755 461.38 54.0391 465.781 54.0391C470.208 54.0391 473.828 53.0755 476.641 51.1484C479.479 49.2214 481.576 46.487 482.93 42.9453C484.284 39.4036 484.961 35.2109 484.961 30.3672C484.961 22.9974 483.411 17.2422 480.312 13.1016C477.24 8.9349 472.435 6.85156 465.898 6.85156C461.471 6.85156 457.826 7.80208 454.961 9.70312C452.096 11.6042 449.961 14.3125 448.555 17.8281C447.174 21.3177 446.484 25.4974 446.484 30.3672ZM520.117 1.89062C524.805 1.89062 528.672 2.47656 531.719 3.64844C534.792 4.79427 537.083 6.55208 538.594 8.92188C540.104 11.2917 540.859 14.3125 540.859 17.9844C540.859 21.0052 540.312 23.5312 539.219 25.5625C538.125 27.5677 536.693 29.1953 534.922 30.4453C533.151 31.6953 531.263 32.6589 529.258 33.3359L544.922 59H537.188L523.203 35.1719H511.328V59H504.688V1.89062H520.117ZM519.727 7.63281H511.328V29.5469H520.391C525.052 29.5469 528.477 28.5964 530.664 26.6953C532.878 24.7943 533.984 21.9948 533.984 18.2969C533.984 14.4167 532.812 11.6693 530.469 10.0547C528.151 8.4401 524.57 7.63281 519.727 7.63281ZM554.062 59V1.89062H560.703V59H554.062ZM591.836 1.89062C596.523 1.89062 600.391 2.47656 603.438 3.64844C606.51 4.79427 608.802 6.55208 610.312 8.92188C611.823 11.2917 612.578 14.3125 612.578 17.9844C612.578 21.0052 612.031 23.5312 610.938 25.5625C609.844 27.5677 608.411 29.1953 606.641 30.4453C604.87 31.6953 602.982 32.6589 600.977 33.3359L616.641 59H608.906L594.922 35.1719H583.047V59H576.406V1.89062H591.836ZM591.445 7.63281H583.047V29.5469H592.109C596.771 29.5469 600.195 28.5964 602.383 26.6953C604.596 24.7943 605.703 21.9948 605.703 18.2969C605.703 14.4167 604.531 11.6693 602.188 10.0547C599.87 8.4401 596.289 7.63281 591.445 7.63281ZM621.172 40.4062V34.625H640.547V40.4062H621.172ZM694.844 59H688.203V32.0859H658.203V59H651.562V1.89062H658.203V26.2266H688.203V1.89062H694.844V59ZM746.367 59L739.336 40.875H716.445L709.453 59H702.734L725.078 1.65625H731.055L753.242 59H746.367ZM737.344 34.9766L730.664 16.9688C730.508 16.5 730.247 15.7318 729.883 14.6641C729.544 13.5964 729.193 12.4896 728.828 11.3438C728.464 10.1979 728.164 9.27344 727.93 8.57031C727.669 9.63802 727.383 10.7057 727.07 11.7734C726.784 12.8151 726.497 13.7917 726.211 14.7031C725.924 15.5885 725.677 16.3438 725.469 16.9688L718.672 34.9766H737.344ZM786.289 59L767.109 8.45312H766.797C766.901 9.52083 766.992 10.8229 767.07 12.3594C767.148 13.8958 767.214 15.5755 767.266 17.3984C767.318 19.1953 767.344 21.0312 767.344 22.9062V59H761.172V1.89062H771.016L789.102 49.3906H789.375L807.734 1.89062H817.5V59H810.938V22.4375C810.938 20.7448 810.964 19.0521 811.016 17.3594C811.068 15.6406 811.133 14.026 811.211 12.5156C811.289 10.9792 811.367 9.65104 811.445 8.53125H811.133L791.719 59H786.289ZM858.242 59L839.062 8.45312H838.75C838.854 9.52083 838.945 10.8229 839.023 12.3594C839.102 13.8958 839.167 15.5755 839.219 17.3984C839.271 19.1953 839.297 21.0312 839.297 22.9062V59H833.125V1.89062H842.969L861.055 49.3906H861.328L879.688 1.89062H889.453V59H882.891V22.4375C882.891 20.7448 882.917 19.0521 882.969 17.3594C883.021 15.6406 883.086 14.026 883.164 12.5156C883.242 10.9792 883.32 9.65104 883.398 8.53125H883.086L863.672 59H858.242ZM940.898 59L933.867 40.875H910.977L903.984 59H897.266L919.609 1.65625H925.586L947.773 59H940.898ZM931.875 34.9766L925.195 16.9688C925.039 16.5 924.779 15.7318 924.414 14.6641C924.076 13.5964 923.724 12.4896 923.359 11.3438C922.995 10.1979 922.695 9.27344 922.461 8.57031C922.201 9.63802 921.914 10.7057 921.602 11.7734C921.315 12.8151 921.029 13.7917 920.742 14.7031C920.456 15.5885 920.208 16.3438 920 16.9688L913.203 34.9766H931.875Z" fill="#387F7D"/>
</svg>
