<svg width="309" height="179" viewBox="0 0 309 179" fill="none" xmlns="http://www.w3.org/2000/svg">
<path d="M128.221 49.9061C128.763 48.9567 128.551 48.0298 127.651 47.3222L125.996 46.0207L124.247 49.0795L125.642 50.177C126.722 51.0197 127.641 50.92 128.221 49.9061ZM134.562 54.0948C135.009 52.522 135.894 50.8576 136.65 49.6273C137.435 48.3454 137.341 46.5279 136.29 45.7016L125.492 37.211C124.437 36.382 122.969 36.9772 122.258 38.3116C121.571 39.5962 120.598 41.1908 119.526 42.273C118.45 43.3569 117.439 43.7832 116.508 43.2062L115.808 44.4306C116.613 45.2198 116.664 46.4801 116.218 48.0598C115.77 49.6326 114.885 51.2969 114.13 52.5273C113.344 53.8092 113.438 55.6267 114.489 56.453L125.284 64.941C126.338 65.7699 127.807 65.1748 128.518 63.8403C129.204 62.5558 130.178 60.9611 131.249 59.879C132.326 58.7951 133.336 58.3688 134.265 58.9432L134.965 57.7188C134.163 56.9322 134.112 55.6719 134.562 54.0948ZM122.86 56.5085L119.645 53.9804L125.499 43.7429L128.697 46.2581C130.119 47.3762 130.477 49.1149 129.593 50.6614C128.972 51.7483 127.789 52.226 126.892 51.7635L126.86 51.8194C127.862 52.8313 128.029 54.3953 127.251 55.7571C126.216 57.5658 124.564 57.8487 122.86 56.5085ZM125.202 51.5804L123.556 50.2867L121.63 53.6548L123.348 55.0054C124.471 55.8885 125.402 55.7673 126.036 54.659C126.667 53.5549 126.381 52.5075 125.202 51.5804Z" fill="#664B44" fill-opacity="0.1"/>
<path d="M212.852 113.482C212.732 112.347 212.053 111.811 210.978 111.967L209 112.256L209.388 115.91L211.056 115.667C212.342 115.474 212.98 114.693 212.852 113.482ZM219.983 111.775C219.442 110.243 219.18 108.306 219.064 106.795C218.941 105.223 217.855 103.922 216.599 104.106L203.697 105.988C202.438 106.171 201.661 107.749 201.869 109.303C202.068 110.802 202.223 112.754 202.019 114.395C201.811 116.041 201.286 117.139 200.26 117.419L200.415 118.882C201.464 118.859 202.207 119.773 202.752 121.309C203.293 122.841 203.555 124.778 203.671 126.288C203.794 127.86 204.88 129.161 206.136 128.978L219.034 127.096C220.293 126.913 221.07 125.335 220.862 123.781C220.663 122.282 220.508 120.33 220.712 118.689C220.92 117.043 221.445 115.945 222.467 115.665L222.312 114.202C221.267 114.225 220.524 113.311 219.983 111.775ZM212.491 122.588L208.649 123.149L207.352 110.917L211.174 110.359C212.873 110.112 214.115 111.15 214.311 112.998C214.448 114.297 213.822 115.566 212.886 115.906L212.893 115.973C214.215 115.967 215.216 117.02 215.388 118.647C215.617 120.808 214.528 122.291 212.491 122.588ZM211.507 117.066L209.541 117.353L209.968 121.377L212.02 121.078C213.362 120.882 213.998 120.075 213.857 118.751C213.717 117.432 212.915 116.861 211.507 117.066Z" fill="#387F7D" fill-opacity="0.1"/>
<g clip-path="url(#clip0_1_57)">
<path d="M101.849 12.5667L105.726 31.0815C105.872 31.785 105.505 32.4924 104.907 32.6669C104.307 32.8379 103.704 32.408 103.555 31.7066L99.6782 13.1925C99.5324 12.4893 99.8984 11.7804 100.497 11.6078C101.097 11.4353 101.7 11.8656 101.849 12.5667ZM106.389 13.3236L111.721 15.0293C112.316 15.2196 112.666 15.9373 112.503 16.6351L111.049 22.8876C110.886 23.5854 110.274 23.9954 109.679 23.8051C109.084 23.6147 108.735 22.8971 108.897 22.1992L110.055 17.2104L105.802 15.8469C105.207 15.6566 104.857 14.9389 105.02 14.2411C105.182 13.5433 105.794 13.1332 106.389 13.3236ZM96.5068 22.0744L95.3473 27.0642L99.6018 28.4267C100.197 28.6171 100.547 29.3348 100.384 30.0326C100.222 30.7304 99.6099 31.1404 99.0148 30.9501L93.6819 29.245C93.087 29.0545 92.7373 28.3369 92.8995 27.6391L94.3549 21.3861C94.5173 20.6882 95.1293 20.2782 95.7244 20.4686C96.3195 20.6589 96.6691 21.3766 96.5068 22.0744Z" fill="#664B44" fill-opacity="0.1"/>
</g>
<g clip-path="url(#clip1_1_57)">
<path d="M165.563 57.0011L169.256 75.5677C169.394 76.2731 169.021 76.9755 168.421 77.1418C167.819 77.3046 167.22 76.8665 167.079 76.1631L163.386 57.5972C163.247 56.8921 163.62 56.1883 164.221 56.0239C164.822 55.8595 165.421 56.2981 165.563 57.0011ZM170.095 57.82L175.41 59.5984C176.003 59.7969 176.346 60.5193 176.176 61.2148L174.66 67.447C174.49 68.1426 173.874 68.5442 173.281 68.3457C172.688 68.1472 172.346 67.4249 172.515 66.7293L173.722 61.7567L169.483 60.3351C168.89 60.1367 168.547 59.4143 168.717 58.7187C168.886 58.0232 169.502 57.6215 170.095 57.82ZM160.127 66.4353L158.918 71.4089L163.158 72.8294C163.752 73.0279 164.094 73.7503 163.925 74.4459C163.756 75.1414 163.14 75.543 162.546 75.3446L157.231 73.5667C156.638 73.3682 156.295 72.6458 156.464 71.9503L157.982 65.7176C158.151 65.022 158.767 64.6204 159.36 64.8189C159.954 65.0173 160.296 65.7397 160.127 66.4353Z" fill="#387F7D" fill-opacity="0.1"/>
</g>
<g clip-path="url(#clip2_1_57)">
<path d="M180.122 144.763L183.54 169.487L192.299 172.055L200.715 168.054L201.113 143.012L180.122 144.763ZM197.457 151.398L187.41 152.237L187.823 155.324L197.422 154.523L197.244 163.914L191.996 166.058L191.997 166.077L191.937 166.082L186.437 164.816L185.82 160.078L188.428 159.86L188.764 162.24L191.744 162.907L194.624 161.751L194.715 157.813L185.592 158.574L184.336 149.479L197.516 148.379L197.457 151.398V151.398Z" fill="#664B44" fill-opacity="0.1"/>
</g>
<g clip-path="url(#clip3_1_57)">
<path d="M57.6874 90.601L78.9291 93.2269L83.3421 83.99L82.2605 73.417L61.7589 66.3902L57.6874 90.601ZM67.6997 72.7289L65.7509 84.3173L68.3994 84.6612L70.2612 73.5898L77.9426 76.2569L78.3284 82.7586L78.3442 82.7622L78.3325 82.8316L75.8464 88.7216L71.7857 88.1756L72.2914 85.1682L74.3376 85.4121L75.6695 82.2158L75.4743 78.6533L72.2579 77.5165L70.4883 88.0393L62.6747 87.0709L65.231 71.8698L67.6997 72.7289V72.7289Z" fill="#387F7D" fill-opacity="0.1"/>
</g>
<g clip-path="url(#clip4_1_57)">
<path d="M289 72.8004V98.0054H309.099V72.8004H289ZM299.938 92.458C299.938 94.911 298.789 96.0306 297.116 96.0306C295.604 96.0306 294.729 95.0517 294.28 93.8646L295.819 92.7C296.115 93.3582 296.384 93.9152 297.035 93.9152C297.654 93.9152 298.049 93.6114 298.049 92.4243V84.3733H299.938V92.458V92.458ZM304.406 96.0306C302.652 96.0306 301.517 94.9842 300.965 93.6114L302.504 92.4974C302.908 93.3245 303.437 93.9377 304.366 93.9377C305.146 93.9377 305.649 93.4482 305.649 92.7675C305.649 91.9573 305.137 91.6704 304.271 91.1922L303.8 90.939C302.436 90.2132 301.535 89.2961 301.535 87.3664C301.535 85.5885 302.616 84.2383 304.298 84.2383C305.501 84.2383 306.362 84.7615 306.981 86.1343L305.51 87.3158C305.187 86.59 304.837 86.3031 304.294 86.3031C303.742 86.3031 303.392 86.7419 303.392 87.3158C303.392 88.0246 303.742 88.3116 304.554 88.756L305.025 89.0092C306.631 89.87 307.533 90.7533 307.533 92.7337C307.533 94.8604 306.196 96.0306 304.406 96.0306V96.0306Z" fill="#387F7D" fill-opacity="0.1"/>
</g>
<g clip-path="url(#clip5_1_57)">
<path d="M143.724 84.5439L150.07 100.044L144.758 109.012L136.777 111.167L135.242 107.091L137.862 104.898L138.532 106.634L143.264 105.185L146.536 99.9358L144.923 95.7947L134.27 104.709L132.911 101.209L143.574 92.2864L142.708 90.0309L132.055 98.9453L130.706 95.4369L143.724 84.5439V84.5439Z" fill="#664B44" fill-opacity="0.1"/>
</g>
<g clip-path="url(#clip6_1_57)">
<path d="M53.2801 7.29209L59.626 22.7924L54.3148 31.7606L46.3332 33.9153L44.7979 29.8391L47.4181 27.6466L48.0882 29.3818L52.82 27.9332L56.0927 22.684L54.4794 18.5429L43.8259 27.4573L42.4675 23.9569L53.1305 15.0345L52.2644 12.7791L41.611 21.6935L40.2621 18.1851L53.2801 7.29209V7.29209Z" fill="#387F7D" fill-opacity="0.1"/>
</g>
<g clip-path="url(#clip7_1_57)">
<path d="M143.489 151.92C143.489 149.755 144.985 148 146.831 148H152.566C154.412 148 155.909 149.755 155.909 151.92C155.909 153.29 155.309 154.497 154.4 155.197C155.309 155.898 155.909 157.104 155.909 158.475C155.909 160.64 154.412 162.394 152.566 162.394H152.494C151.628 162.394 150.84 162.009 150.246 161.376V164.987C150.246 167.181 148.711 168.95 146.849 168.95C145.008 168.95 143.489 167.2 143.489 165.03C143.489 163.659 144.088 162.453 144.997 161.752C144.088 161.052 143.489 159.846 143.489 158.475C143.489 157.104 144.089 155.898 144.997 155.197C144.089 154.497 143.489 153.29 143.489 151.92ZM149.151 155.839H146.831C145.59 155.839 144.583 157.019 144.583 158.475C144.583 159.925 145.582 161.101 146.817 161.111C146.821 161.111 146.826 161.111 146.831 161.111H149.151V155.839ZM150.246 158.475C150.246 159.931 151.252 161.111 152.494 161.111H152.566C153.808 161.111 154.814 159.931 154.814 158.475C154.814 157.019 153.808 155.839 152.566 155.839H152.494C151.252 155.839 150.246 157.019 150.246 158.475ZM146.831 162.394C146.826 162.394 146.821 162.394 146.817 162.394C145.582 162.403 144.583 163.58 144.583 165.03C144.583 166.48 145.603 167.666 146.849 167.666C148.115 167.666 149.151 166.461 149.151 164.987V162.394H146.831ZM146.831 149.284C145.59 149.284 144.583 150.464 144.583 151.92C144.583 153.375 145.59 154.555 146.831 154.555H149.151V149.284H146.831ZM150.246 154.555H152.566C153.808 154.555 154.814 153.375 154.814 151.92C154.814 150.464 153.808 149.284 152.566 149.284H150.246V154.555Z" fill="#664B44" fill-opacity="0.1"/>
</g>
<g clip-path="url(#clip8_1_57)">
<path d="M280.629 30.8516H279.388V28.0693H280.629V30.8516ZM291.795 25.2869V33.634H280.629V35.0252H275.666V33.634H269.463V25.2869H291.795ZM275.666 26.6781H270.704V32.2428H273.185V28.0693H274.426V32.2428H275.666V26.6781ZM281.87 26.6781H276.907V33.634H279.388V32.2428H281.87V26.6781ZM290.554 26.6781H283.11V32.2428H285.592V28.0693H286.832V32.2428H288.073V28.0693H289.314V32.2428H290.554V26.6781Z" fill="#664B44" fill-opacity="0.1"/>
</g>
<g clip-path="url(#clip9_1_57)">
<path d="M44.0646 148.063C43.8055 147.971 43.5464 147.884 43.2873 147.802C43.3305 147.613 43.3689 147.424 43.4073 147.235C43.9974 144.186 43.6088 141.736 42.299 140.928C41.0371 140.156 38.9789 140.959 36.8966 142.892C36.6903 143.081 36.4888 143.281 36.2969 143.48C36.1673 143.347 36.033 143.214 35.8987 143.087C33.7156 141.02 31.5278 140.151 30.218 140.964C28.961 141.741 28.5867 144.048 29.1145 146.933C29.1673 147.219 29.2249 147.501 29.292 147.787C28.985 147.879 28.6827 147.981 28.3996 148.089C25.8376 149.035 24 150.528 24 152.073C24 153.669 25.9575 155.27 28.6203 156.242C28.8362 156.318 29.0521 156.395 29.2728 156.461C29.2009 156.768 29.1385 157.07 29.0809 157.382C28.5771 160.221 28.9706 162.471 30.2276 163.243C31.523 164.041 33.7012 163.223 35.8219 161.244C35.9898 161.085 36.1577 160.921 36.3257 160.748C36.5368 160.967 36.7575 161.177 36.9782 161.382C39.0316 163.264 41.0611 164.026 42.3134 163.254C43.6088 162.456 44.031 160.037 43.484 157.091C43.4409 156.866 43.3929 156.635 43.3401 156.4C43.4936 156.354 43.6424 156.303 43.7911 156.252C46.5595 155.275 48.565 153.694 48.565 152.073C48.565 150.523 46.6746 149.02 44.0646 148.063V148.063ZM37.5731 143.721C39.3579 142.064 41.0227 141.414 41.7808 141.88C42.5916 142.376 42.9035 144.381 42.3949 147.015C42.3613 147.189 42.3278 147.357 42.2846 147.526C41.2195 147.27 40.1399 147.086 39.0556 146.984C38.4319 146.033 37.7506 145.122 37.0118 144.268C37.1989 144.079 37.3812 143.9 37.5731 143.721V143.721ZM32.022 154.728C32.2667 155.173 32.5162 155.618 32.7801 156.052C32.0316 155.965 31.2879 155.837 30.5539 155.669C30.765 154.932 31.0288 154.17 31.3359 153.393C31.5566 153.843 31.7821 154.288 32.022 154.728V154.728ZM30.5682 148.575C31.2591 148.411 31.9932 148.278 32.7561 148.176C32.5018 148.6 32.2523 149.035 32.0172 149.475C31.7821 149.91 31.5518 150.355 31.3359 150.805C31.0336 150.043 30.7794 149.296 30.5682 148.575ZM31.8829 152.099C32.1995 151.393 32.545 150.702 32.9096 150.022C33.2742 149.342 33.6677 148.682 34.0803 148.032C34.7999 147.976 35.534 147.946 36.2825 147.946C37.0309 147.946 37.7698 147.976 38.4847 148.032C38.8925 148.677 39.2811 149.337 39.6506 150.012C40.02 150.687 40.3654 151.377 40.6917 152.078C40.3702 152.784 40.0248 153.48 39.6554 154.165C39.2907 154.845 38.9021 155.505 38.4943 156.16C37.7794 156.216 37.0357 156.242 36.2825 156.242C35.5292 156.242 34.7999 156.216 34.0947 156.17C33.6772 155.52 33.2838 154.855 32.9144 154.175C32.545 153.495 32.2043 152.804 31.8829 152.099ZM40.5478 154.717C40.7925 154.267 41.0227 153.812 41.2482 153.352C41.5553 154.093 41.824 154.845 42.0591 155.618C41.3154 155.797 40.5622 155.935 39.8041 156.027C40.0632 155.597 40.3079 155.157 40.5478 154.717ZM41.2386 150.805C41.0132 150.355 40.7829 149.904 40.543 149.465C40.3079 149.03 40.0632 148.6 39.8089 148.176C40.5813 148.278 41.3202 148.416 42.0111 148.585C41.7904 149.342 41.5313 150.078 41.2386 150.805V150.805ZM36.2921 145.051C36.7958 145.634 37.2708 146.247 37.7122 146.882C36.7623 146.836 35.8075 146.836 34.8575 146.882C35.3277 146.222 35.8123 145.608 36.2921 145.051ZM30.7266 141.915C31.5326 141.414 33.3222 142.13 35.2078 143.91C35.3277 144.023 35.4477 144.145 35.5724 144.268C34.8287 145.122 34.1426 146.033 33.5141 146.984C32.4298 147.086 31.3551 147.265 30.29 147.516C30.2276 147.255 30.1748 146.989 30.122 146.723C29.6711 144.248 29.9685 142.381 30.7266 141.915V141.915ZM29.5511 155.398C29.3496 155.336 29.1529 155.27 28.9562 155.198C27.9342 154.855 26.7732 154.313 25.9335 153.602C25.4489 153.244 25.1227 152.692 25.0315 152.073C25.0315 151.137 26.5477 149.94 28.7355 149.127C29.0089 149.025 29.2872 148.933 29.5655 148.846C29.8918 149.956 30.2852 151.045 30.741 152.099C30.2804 153.168 29.8822 154.272 29.5511 155.398V155.398ZM35.1454 160.41C34.3537 161.182 33.4374 161.796 32.4394 162.215C31.9068 162.487 31.2927 162.512 30.7458 162.282C29.9829 161.811 29.6663 160.006 30.0981 157.576C30.1508 157.29 30.2084 157.004 30.2756 156.722C31.3503 156.968 32.4346 157.137 33.5333 157.224C34.1666 158.18 34.8623 159.096 35.606 159.955C35.4525 160.113 35.2989 160.267 35.1454 160.41ZM36.3209 159.167C35.8315 158.604 35.3421 157.981 34.8671 157.31C35.3277 157.331 35.8027 157.341 36.2825 157.341C36.7767 157.341 37.2612 157.331 37.741 157.305C37.2996 157.955 36.8246 158.574 36.3209 159.167V159.167ZM42.5916 160.702C42.5485 161.325 42.2606 161.909 41.8 162.302C41.0371 162.773 39.4107 162.159 37.6547 160.553C37.4532 160.369 37.2516 160.17 37.0453 159.965C37.7794 159.101 38.4559 158.185 39.07 157.224C40.1687 157.126 41.2626 156.947 42.3422 156.686C42.3901 156.896 42.4333 157.106 42.4717 157.31C42.7068 158.415 42.7452 159.566 42.5916 160.702V160.702ZM43.4649 155.203C43.3305 155.249 43.1962 155.295 43.057 155.336C42.7212 154.221 42.3086 153.132 41.8336 152.073C42.2942 151.03 42.6828 149.956 43.0091 148.856C43.2585 148.933 43.4984 149.015 43.7287 149.096C45.9645 149.915 47.5334 151.132 47.5334 152.063C47.5334 153.065 45.859 154.359 43.4649 155.203ZM36.2825 154.436C37.4963 154.436 38.4799 153.388 38.4799 152.094C38.4799 150.8 37.4963 149.751 36.2825 149.751C35.0686 149.751 34.0851 150.8 34.0851 152.094C34.0851 153.388 35.0686 154.436 36.2825 154.436Z" fill="#664B44" fill-opacity="0.1"/>
</g>
<g clip-path="url(#clip10_1_57)">
<path d="M166.703 9.06318C166.444 8.97111 166.185 8.88416 165.926 8.80233C165.969 8.61309 166.007 8.42384 166.046 8.2346C166.636 5.18626 166.247 2.73634 164.937 1.92823C163.675 1.15591 161.617 1.95891 159.535 3.89225C159.329 4.0815 159.127 4.28097 158.935 4.48044C158.806 4.34746 158.671 4.21448 158.537 4.08661C156.354 2.02029 154.166 1.1508 152.856 1.96403C151.599 2.74146 151.225 5.04817 151.753 7.93284C151.806 8.21926 151.863 8.50056 151.93 8.78699C151.623 8.87905 151.321 8.98134 151.038 9.08875C148.476 10.035 146.638 11.5284 146.638 13.0731C146.638 14.6688 148.596 16.2697 151.259 17.2415C151.475 17.3182 151.69 17.395 151.911 17.4614C151.839 17.7683 151.777 18.0701 151.719 18.3821C151.215 21.2207 151.609 23.4712 152.866 24.2435C154.161 25.0414 156.34 24.223 158.46 22.2437C158.628 22.0851 158.796 21.9214 158.964 21.7475C159.175 21.9675 159.396 22.1772 159.616 22.3818C161.67 24.2639 163.699 25.026 164.952 24.2537C166.247 23.4558 166.669 21.0366 166.122 18.0906C166.079 17.8655 166.031 17.6353 165.978 17.4001C166.132 17.354 166.281 17.3029 166.429 17.2517C169.198 16.2748 171.203 14.6944 171.203 13.0731C171.203 11.5233 169.313 10.0196 166.703 9.06318V9.06318ZM160.211 4.72083C161.996 3.06368 163.661 2.41412 164.419 2.87955C165.23 3.37567 165.542 5.38062 165.033 8.01467C165 8.18857 164.966 8.35735 164.923 8.52614C163.858 8.2704 162.778 8.08628 161.694 7.98398C161.07 7.03266 160.389 6.12225 159.65 5.2681C159.837 5.07886 160.019 4.89984 160.211 4.72083V4.72083ZM154.66 15.7276C154.905 16.1726 155.154 16.6175 155.418 17.0523C154.67 16.9653 153.926 16.8375 153.192 16.6687C153.403 15.9322 153.667 15.1701 153.974 14.3927C154.195 14.8427 154.42 15.2877 154.66 15.7276V15.7276ZM153.207 9.57464C153.897 9.41097 154.631 9.27799 155.394 9.1757C155.14 9.60022 154.891 10.035 154.655 10.4748C154.42 10.9096 154.19 11.3545 153.974 11.8046C153.672 11.0426 153.418 10.2958 153.207 9.57464ZM154.521 13.0986C154.838 12.3928 155.183 11.7023 155.548 11.0221C155.913 10.3418 156.306 9.68205 156.719 9.03249C157.438 8.97623 158.172 8.94554 158.921 8.94554C159.669 8.94554 160.408 8.97623 161.123 9.03249C161.531 9.67694 161.919 10.3367 162.289 11.0119C162.658 11.687 163.004 12.3775 163.33 13.0782C163.009 13.784 162.663 14.4796 162.294 15.165C161.929 15.8452 161.54 16.505 161.133 17.1597C160.418 17.2159 159.674 17.2415 158.921 17.2415C158.167 17.2415 157.438 17.2159 156.733 17.1699C156.316 16.5204 155.922 15.8554 155.553 15.1752C155.183 14.4949 154.843 13.8045 154.521 13.0986ZM163.186 15.7173C163.431 15.2673 163.661 14.8121 163.887 14.3517C164.194 15.0934 164.462 15.8452 164.697 16.6175C163.954 16.7965 163.2 16.9346 162.442 17.0267C162.701 16.5971 162.946 16.1572 163.186 15.7173ZM163.877 11.8046C163.651 11.3545 163.421 10.9045 163.181 10.4646C162.946 10.0298 162.701 9.60022 162.447 9.1757C163.22 9.27799 163.958 9.41609 164.649 9.58487C164.429 10.3418 164.17 11.0784 163.877 11.8046V11.8046ZM158.93 6.05064C159.434 6.63371 159.909 7.24747 160.351 7.88169C159.401 7.83566 158.446 7.83566 157.496 7.88169C157.966 7.2219 158.451 6.60814 158.93 6.05064ZM153.365 2.91535C154.171 2.41412 155.96 3.13017 157.846 4.91007C157.966 5.02259 158.086 5.14535 158.211 5.2681C157.467 6.12225 156.781 7.03266 156.152 7.98398C155.068 8.08628 153.993 8.26529 152.928 8.51591C152.866 8.25506 152.813 7.9891 152.76 7.72314C152.309 5.24764 152.607 3.38079 153.365 2.91535V2.91535ZM152.189 16.3976C151.988 16.3362 151.791 16.2697 151.594 16.1981C150.573 15.8554 149.411 15.3133 148.572 14.6024C148.087 14.2443 147.761 13.6919 147.67 13.0731C147.67 12.1371 149.186 10.9403 151.374 10.127C151.647 10.0247 151.925 9.93267 152.204 9.84572C152.53 10.9556 152.923 12.045 153.379 13.0986C152.919 14.1676 152.52 15.2724 152.189 16.3976V16.3976ZM157.784 21.41C156.992 22.1823 156.076 22.796 155.078 23.2154C154.545 23.4865 153.931 23.5121 153.384 23.2819C152.621 22.8114 152.305 21.0059 152.736 18.5764C152.789 18.29 152.847 18.0036 152.914 17.7223C153.989 17.9678 155.073 18.1366 156.172 18.2235C156.805 19.18 157.501 20.0955 158.244 20.9548C158.091 21.1133 157.937 21.2668 157.784 21.41ZM158.959 20.1671C158.47 19.6045 157.98 18.9805 157.505 18.3105C157.966 18.3309 158.441 18.3412 158.921 18.3412C159.415 18.3412 159.9 18.3309 160.379 18.3054C159.938 18.9549 159.463 19.5738 158.959 20.1671V20.1671ZM165.23 21.7015C165.187 22.3255 164.899 22.9086 164.438 23.3024C163.675 23.7729 162.049 23.1592 160.293 21.5532C160.091 21.3691 159.89 21.1696 159.684 20.965C160.418 20.1006 161.094 19.1851 161.708 18.2235C162.807 18.1264 163.901 17.9473 164.98 17.6865C165.028 17.8962 165.072 18.1059 165.11 18.3105C165.345 19.4153 165.383 20.566 165.23 21.7015V21.7015ZM166.103 16.2032C165.969 16.2493 165.834 16.2953 165.695 16.3362C165.359 15.2212 164.947 14.1318 164.472 13.0731C164.932 12.0297 165.321 10.9556 165.647 9.85595C165.897 9.93267 166.137 10.0145 166.367 10.0963C168.603 10.9147 170.172 12.132 170.172 13.0628C170.172 14.0653 168.497 15.3593 166.103 16.2032ZM158.921 15.436C160.135 15.436 161.118 14.3875 161.118 13.0935C161.118 11.7995 160.135 10.751 158.921 10.751C157.707 10.751 156.723 11.7995 156.723 13.0935C156.723 14.3875 157.707 15.436 158.921 15.436Z" fill="#387F7D" fill-opacity="0.1"/>
</g>
<g clip-path="url(#clip11_1_57)">
<path d="M254.124 127.716C254.11 127.749 254.096 127.774 254.124 127.716V127.716ZM265.425 123.044C264.512 123.044 263.612 123.292 262.794 123.769C262.526 123.13 262.249 122.572 262.204 122.153C262.149 121.664 262.09 121.374 262.154 120.794C262.217 120.214 262.503 119.392 262.499 119.333C262.494 119.274 262.435 118.979 261.85 118.973C261.265 118.968 260.761 119.108 260.703 119.29C260.6 119.624 260.519 119.967 260.462 120.316C260.358 120.944 259.293 123.189 258.689 124.36C258.49 123.903 258.322 123.501 258.286 123.178C258.231 122.69 258.172 122.4 258.236 121.82C258.299 121.24 258.585 120.418 258.58 120.359C258.576 120.3 258.517 120.004 257.932 119.999C257.347 119.994 256.844 120.133 256.785 120.316C256.726 120.499 256.662 120.928 256.544 121.342C256.426 121.755 255.007 125.493 254.635 126.465C254.445 126.959 254.281 127.357 254.164 127.625C254.145 127.668 254.132 127.695 254.123 127.716C254.136 127.69 254.145 127.663 254.145 127.673C254.046 127.904 253.987 128.033 253.987 128.033V128.039C253.91 128.21 253.823 128.366 253.783 128.366C253.755 128.366 253.696 127.915 253.796 127.297C254.009 125.998 254.513 123.979 254.508 123.909C254.504 123.871 254.604 123.522 254.177 123.334C253.764 123.157 253.615 123.452 253.578 123.452C253.542 123.452 253.515 123.56 253.515 123.56C253.515 123.56 253.973 121.283 252.635 121.283C251.801 121.283 250.639 122.367 250.069 123.35C249.71 123.581 248.935 124.081 248.118 124.612C247.805 124.816 247.483 125.026 247.179 125.225C247.157 125.198 247.138 125.171 247.116 125.144C245.492 123.092 242.495 121.642 242.622 118.887C242.667 117.883 242.962 115.246 248.386 112.046C252.831 109.425 256.385 110.144 256.997 111.745C257.877 114.027 255.097 118.275 250.481 118.887C248.721 119.118 247.796 118.313 247.565 118.012C247.324 117.695 247.288 117.679 247.197 117.738C247.048 117.835 247.143 118.114 247.197 118.281C247.333 118.705 247.901 119.457 248.866 119.833C249.715 120.16 251.778 120.343 254.272 119.199C257.074 117.921 259.256 114.36 258.616 111.38C257.965 108.351 253.723 107.357 249.711 109.044C247.321 110.048 244.737 111.627 242.877 113.684C240.669 116.132 240.315 118.264 240.46 119.156C240.977 122.319 244.659 124.381 246.133 125.907C246.061 125.955 245.993 125.998 245.929 126.041C245.19 126.476 242.383 128.216 241.68 130.052C240.886 132.136 241.812 133.629 242.419 133.833C244.315 134.456 246.256 133.334 247.299 131.492C248.341 129.65 248.215 127.244 247.734 126.148C247.729 126.132 247.72 126.121 247.716 126.105C247.906 125.971 248.101 125.837 248.297 125.702C248.673 125.439 249.04 125.198 249.362 124.988C249.181 125.568 249.049 126.266 248.981 127.276C248.899 128.457 249.312 129.988 249.847 130.59C250.083 130.853 250.369 130.858 250.546 130.858C251.172 130.858 251.453 130.246 251.765 129.515C252.151 128.624 252.491 127.587 252.491 127.587C252.491 127.587 252.065 130.391 253.23 130.391C253.656 130.391 254.083 129.741 254.274 129.408V129.413C254.274 129.413 254.283 129.392 254.306 129.349C254.351 129.268 254.374 129.22 254.374 129.22V129.204C254.546 128.855 254.922 128.055 255.489 126.734C256.224 125.026 256.927 122.894 256.927 122.894C256.994 123.362 257.088 123.825 257.208 124.279C257.335 124.79 257.602 125.348 257.816 125.89C257.643 126.17 257.539 126.331 257.539 126.331C257.539 126.335 257.541 126.339 257.543 126.342C257.407 126.556 257.253 126.787 257.094 127.013C256.514 127.829 255.824 128.764 255.734 129.032C255.625 129.349 255.652 129.585 255.861 129.768C256.015 129.907 256.287 129.929 256.572 129.902C257.094 129.859 257.461 129.709 257.638 129.612C257.964 129.474 258.273 129.282 258.554 129.043C259.121 128.549 259.466 127.84 259.434 126.905C259.416 126.39 259.275 125.874 259.103 125.391C259.153 125.305 259.207 125.214 259.257 125.122C260.155 123.57 260.849 121.867 260.849 121.867C260.917 122.336 261.011 122.798 261.13 123.253C261.239 123.688 261.452 124.165 261.647 124.633C260.804 125.444 260.282 126.383 260.1 127.001C259.765 128.145 260.028 128.66 260.522 128.779C260.745 128.832 261.062 128.709 261.298 128.591C261.648 128.453 261.979 128.251 262.277 127.995C262.844 127.5 263.393 126.808 263.357 125.868C263.343 125.444 263.243 125.019 263.112 124.611C263.824 124.257 264.749 124.063 265.928 124.225C268.454 124.574 268.948 126.443 268.853 127.221C268.758 128 268.227 128.435 268.05 128.564C267.873 128.693 267.819 128.741 267.832 128.838C267.855 128.977 267.937 128.972 268.086 128.94C268.295 128.897 269.41 128.306 269.46 126.861C269.533 125.035 268.05 123.027 265.423 123.043L265.425 123.044ZM245.956 130.815C245.122 131.895 243.952 132.303 243.449 131.959C242.909 131.587 243.122 129.999 244.151 128.848C244.777 128.15 245.584 127.506 246.12 127.108C246.242 127.023 246.419 126.894 246.637 126.738C246.673 126.711 246.691 126.7 246.691 126.7C246.732 126.668 246.777 126.641 246.823 126.609C247.199 128.242 246.836 129.681 245.956 130.814V130.815ZM252.051 125.907C251.761 126.75 251.149 128.898 250.777 128.785C250.459 128.688 250.264 127.05 250.713 125.439C250.94 124.628 251.421 123.662 251.707 123.286C252.164 122.679 252.668 122.486 252.786 122.727C252.945 123.044 252.233 125.38 252.051 125.907ZM257.086 128.753C256.964 128.828 256.85 128.876 256.796 128.839C256.755 128.812 256.846 128.71 256.846 128.71C256.846 128.71 257.476 127.91 257.726 127.545C257.871 127.33 258.039 127.077 258.22 126.798C258.22 126.825 258.224 126.852 258.224 126.884C258.218 127.845 257.439 128.495 257.085 128.753H257.086ZM260.968 127.706C260.877 127.63 260.891 127.378 261.195 126.594C261.313 126.288 261.585 125.772 262.057 125.278C262.11 125.465 262.139 125.661 262.143 125.858C262.139 127.067 261.408 127.518 260.969 127.706H260.968Z" fill="#664B44" fill-opacity="0.1"/>
</g>
<g clip-path="url(#clip12_1_57)">
<path d="M78.6919 171.349C78.6783 171.382 78.6647 171.407 78.6919 171.349V171.349ZM89.9928 166.677C89.0804 166.677 88.1802 166.925 87.3618 167.402C87.0942 166.763 86.8175 166.205 86.7721 165.786C86.7177 165.297 86.6587 165.007 86.7222 164.427C86.7857 163.847 87.0715 163.025 87.067 162.966C87.0624 162.907 87.0035 162.612 86.4183 162.606C85.8331 162.601 85.3296 162.741 85.2711 162.923C85.1678 163.257 85.0874 163.6 85.0307 163.949C84.9264 164.577 83.8608 166.822 83.2575 167.993C83.0579 167.537 82.8901 167.134 82.8538 166.812C82.7994 166.323 82.7404 166.033 82.8039 165.453C82.8674 164.873 83.1532 164.051 83.1486 163.992C83.1441 163.933 83.0851 163.638 82.5004 163.632C81.9157 163.627 81.4118 163.766 81.3528 163.949C81.2938 164.132 81.2303 164.561 81.1124 164.975C80.9944 165.388 79.5751 169.126 79.2036 170.098C79.013 170.592 78.8497 170.99 78.7318 171.258C78.7137 171.301 78.7 171.328 78.691 171.349C78.7046 171.323 78.7137 171.296 78.7137 171.307C78.6139 171.537 78.5549 171.666 78.5549 171.666V171.672C78.4778 171.844 78.3916 171.999 78.3508 171.999C78.3235 171.999 78.2646 171.548 78.3644 170.931C78.5776 169.631 79.0811 167.612 79.0765 167.542C79.072 167.504 79.1718 167.155 78.7454 166.967C78.3326 166.79 78.1829 167.085 78.1466 167.085C78.1103 167.085 78.0831 167.193 78.0831 167.193C78.0831 167.193 78.5413 164.916 77.2036 164.916C76.3689 164.916 75.2077 166.001 74.637 166.983C74.2787 167.214 73.503 167.714 72.6865 168.245C72.3735 168.449 72.0514 168.659 71.7475 168.858C71.7248 168.831 71.7067 168.804 71.684 168.777C70.0605 166.726 67.063 165.276 67.19 162.521C67.2354 161.516 67.5303 158.879 72.9541 155.679C77.3995 153.058 80.9536 153.778 81.5655 155.378C82.4455 157.66 79.6653 161.908 75.0489 162.521C73.2893 162.751 72.3644 161.946 72.1331 161.645C71.8927 161.328 71.8564 161.312 71.7656 161.371C71.616 161.468 71.7112 161.747 71.7656 161.914C71.9017 162.338 72.4687 163.09 73.4345 163.466C74.2828 163.793 76.3458 163.976 78.8402 162.832C81.6426 161.554 83.8241 157.993 83.1845 155.013C82.5331 151.984 78.2909 150.99 74.2796 152.677C71.8895 153.681 69.3048 155.26 67.4454 157.317C65.2368 159.766 64.8834 161.898 65.0286 162.789C65.5452 165.952 69.2277 168.014 70.7015 169.54C70.6289 169.588 70.5608 169.631 70.4973 169.674C69.7584 170.109 66.951 171.849 66.2483 173.686C65.4545 175.769 66.3799 177.262 66.9873 177.466C68.8829 178.089 70.8239 176.967 71.8668 175.125C72.9097 173.283 72.7831 170.877 72.3023 169.781C72.2977 169.765 72.2887 169.754 72.2841 169.738C72.4746 169.604 72.6697 169.47 72.8648 169.336C73.2408 169.072 73.6082 168.831 73.9303 168.621C73.7488 169.201 73.6173 169.899 73.5493 170.909C73.4676 172.091 73.8804 173.621 74.4157 174.223C74.6515 174.486 74.9369 174.491 75.1138 174.491C75.7398 174.491 76.021 173.879 76.3335 173.149C76.7191 172.257 77.0593 171.221 77.0593 171.221C77.0593 171.221 76.6329 174.024 77.7987 174.024C78.2247 174.024 78.6511 173.374 78.842 173.041V173.047C78.842 173.047 78.8511 173.025 78.8738 172.982C78.9191 172.902 78.9418 172.853 78.9418 172.853V172.837C79.1142 172.488 79.4907 171.688 80.0573 170.367C80.7921 168.659 81.4948 166.527 81.4948 166.527C81.5627 166.996 81.6566 167.458 81.776 167.912C81.903 168.423 82.1707 168.981 82.3838 169.524C82.2115 169.803 82.1071 169.964 82.1071 169.964C82.1075 169.968 82.1091 169.972 82.1117 169.975C81.9756 170.189 81.8214 170.42 81.6626 170.646C81.0824 171.462 80.3925 172.397 80.3018 172.665C80.1929 172.982 80.2201 173.218 80.4288 173.401C80.583 173.541 80.8552 173.562 81.1405 173.535C81.6621 173.492 82.0296 173.342 82.2065 173.245C82.5326 173.107 82.8409 172.915 83.1223 172.676C83.6894 172.182 84.0341 171.473 84.0023 170.539C83.9842 170.023 83.8436 169.507 83.6712 169.024C83.7211 168.938 83.7755 168.847 83.8254 168.756C84.7231 167.204 85.4172 165.5 85.4172 165.5C85.4851 165.969 85.579 166.432 85.6984 166.886C85.8073 167.321 86.02 167.799 86.2151 168.266C85.3718 169.077 84.8501 170.017 84.6687 170.634C84.333 171.778 84.5961 172.294 85.0906 172.412C85.3128 172.465 85.6304 172.342 85.8662 172.224C86.2166 172.086 86.5469 171.885 86.8456 171.628C87.4126 171.134 87.961 170.441 87.9247 169.501C87.9111 169.077 87.8113 168.652 87.6798 168.244C88.392 167.89 89.3169 167.697 90.4963 167.858C93.022 168.207 93.5164 170.076 93.4212 170.854C93.3259 171.633 92.7952 172.068 92.6183 172.197C92.4414 172.326 92.3869 172.374 92.4006 172.471C92.4232 172.61 92.5049 172.605 92.6546 172.573C92.8632 172.53 93.9787 171.939 94.0286 170.495C94.1012 168.669 92.6183 166.66 89.9914 166.676L89.9928 166.677ZM70.5246 174.448C69.6904 175.528 68.52 175.936 68.017 175.592C67.4772 175.22 67.6904 173.632 68.7196 172.482C69.3456 171.783 70.1526 171.139 70.6879 170.742C70.8103 170.656 70.9872 170.527 71.205 170.371C71.2413 170.344 71.2594 170.333 71.2594 170.333C71.3002 170.301 71.3456 170.274 71.391 170.242C71.767 171.875 71.4046 173.314 70.5246 174.447V174.448ZM76.6193 169.54C76.329 170.383 75.7171 172.531 75.3451 172.418C75.0276 172.322 74.8325 170.684 75.2816 169.072C75.5084 168.262 75.9892 167.295 76.275 166.919C76.7327 166.312 77.2362 166.119 77.3542 166.36C77.5129 166.677 76.8008 169.013 76.6193 169.54ZM81.6544 172.386C81.532 172.461 81.4186 172.509 81.3641 172.472C81.3233 172.445 81.414 172.343 81.414 172.343C81.414 172.343 82.0445 171.543 82.294 171.178C82.4392 170.963 82.607 170.71 82.788 170.431C82.788 170.458 82.7926 170.485 82.7926 170.517C82.7867 171.478 82.0069 172.128 81.6531 172.386H81.6544ZM85.5365 171.339C85.4457 171.264 85.4594 171.011 85.7633 170.227C85.8812 169.921 86.1529 169.405 86.6251 168.911C86.6786 169.098 86.7077 169.294 86.7113 169.491C86.7068 170.7 85.9765 171.151 85.5369 171.339H85.5365Z" fill="#387F7D" fill-opacity="0.1"/>
</g>
<g clip-path="url(#clip13_1_57)">
<path d="M202.071 30.8004C202.071 30.9027 202.17 30.9845 202.294 30.9845C202.435 30.9999 202.533 30.9181 202.533 30.8004C202.533 30.6981 202.435 30.6163 202.311 30.6163C202.182 30.6009 202.071 30.6828 202.071 30.8004ZM203.401 30.5703C203.431 30.6726 203.346 30.7902 203.218 30.8209C203.106 30.872 202.978 30.8209 202.952 30.7186C202.927 30.6163 203.008 30.4987 203.136 30.4526C203.247 30.4168 203.372 30.468 203.401 30.5703ZM201.511 30.4833C201.635 30.5191 201.721 30.6163 201.708 30.7339C201.695 30.8362 201.584 30.9027 201.455 30.8669C201.331 30.8311 201.246 30.7339 201.259 30.6316C201.271 30.5345 201.387 30.468 201.511 30.4833ZM198.696 10.8839C204.629 10.8839 209.167 16.2697 209.167 23.3637C209.167 29.0359 206.182 33.8897 201.917 35.598C201.37 35.7156 201.177 35.3115 201.177 34.9791C201.177 34.662 201.19 32.9128 201.19 31.8387C201.19 31.8387 204.184 32.6059 204.813 30.3145C204.813 30.3145 205.301 28.8262 206.002 28.4426C206.002 28.4426 206.982 27.6396 205.934 27.6549C205.934 27.6549 204.869 27.7572 204.283 28.9745C203.346 30.9487 201.776 30.381 201.164 30.0435C201.066 29.2251 200.788 28.6574 200.48 28.3198C202.871 28.0027 205.283 27.5884 205.283 22.6681C205.283 21.2616 204.958 20.5558 204.274 19.6556C204.385 19.3231 204.749 17.9524 204.163 16.1827C203.269 15.8503 201.212 17.5637 201.212 17.5637C200.356 17.2773 199.436 17.1289 198.525 17.1289C197.614 17.1289 196.695 17.2773 195.839 17.5637C195.839 17.5637 193.782 15.8452 192.888 16.1827C192.302 17.9575 192.666 19.3231 192.777 19.6556C192.092 20.5609 191.673 21.2667 191.673 22.6681C191.673 27.6038 194.193 27.9976 196.584 28.3198C196.19 28.7239 195.856 29.4911 195.856 30.693C195.856 32.4167 195.869 34.5495 195.869 34.9689C195.869 35.3013 195.672 35.7054 195.129 35.5877C190.852 33.8897 187.952 29.0359 187.952 23.3637C187.952 16.2697 192.764 10.8839 198.696 10.8839ZM205.01 28.5244C205.065 28.5755 205.053 28.6932 204.98 28.7904C204.911 28.8722 204.813 28.908 204.757 28.8415C204.702 28.7904 204.715 28.6727 204.787 28.5755C204.856 28.4937 204.954 28.4579 205.01 28.5244ZM205.472 28.1101C205.502 28.1766 205.459 28.2584 205.373 28.3096C205.305 28.3607 205.219 28.3454 205.189 28.2738C205.159 28.2073 205.202 28.1255 205.288 28.0743C205.373 28.0436 205.442 28.059 205.472 28.1101ZM204.086 29.9309C204.154 29.9974 204.129 30.1509 204.03 30.248C203.932 30.3657 203.808 30.381 203.752 30.2992C203.697 30.2327 203.722 30.0793 203.808 29.9821C203.902 29.8644 204.03 29.8491 204.086 29.9309ZM204.573 29.1791C204.642 29.2302 204.642 29.3632 204.573 29.4808C204.505 29.5985 204.39 29.6496 204.334 29.5985C204.265 29.532 204.265 29.399 204.334 29.2814C204.394 29.1637 204.505 29.1126 204.573 29.1791Z" fill="#664B44" fill-opacity="0.1"/>
</g>
<g clip-path="url(#clip14_1_57)">
<path d="M213.237 89.7213C213.237 89.8236 213.336 89.9055 213.46 89.9055C213.601 89.9208 213.699 89.839 213.699 89.7213C213.699 89.6191 213.601 89.5372 213.477 89.5372C213.348 89.5219 213.237 89.6037 213.237 89.7213ZM214.567 89.4912C214.597 89.5935 214.512 89.7111 214.383 89.7418C214.272 89.793 214.144 89.7418 214.118 89.6395C214.093 89.5372 214.174 89.4196 214.302 89.3736C214.413 89.3377 214.537 89.3889 214.567 89.4912ZM212.677 89.4042C212.801 89.44 212.886 89.5372 212.874 89.6549C212.861 89.7572 212.75 89.8236 212.621 89.7878C212.497 89.752 212.412 89.6549 212.424 89.5526C212.437 89.4554 212.553 89.3889 212.677 89.4042ZM209.862 69.8049C215.795 69.8049 220.333 75.1906 220.333 82.2846C220.333 87.9568 217.348 92.8106 213.083 94.5189C212.536 94.6365 212.343 94.2325 212.343 93.9C212.343 93.5829 212.356 91.8337 212.356 90.7596C212.356 90.7596 215.35 91.5268 215.979 89.2355C215.979 89.2355 216.466 87.7471 217.168 87.3635C217.168 87.3635 218.147 86.5605 217.1 86.5758C217.1 86.5758 216.034 86.6781 215.449 87.8954C214.512 89.8697 212.942 89.3019 212.33 88.9644C212.232 88.146 211.954 87.5783 211.646 87.2407C214.037 86.9236 216.449 86.5093 216.449 81.589C216.449 80.1825 216.124 79.4767 215.44 78.5765C215.551 78.2441 215.915 76.8733 215.329 75.1037C214.435 74.7712 212.377 76.4846 212.377 76.4846C211.522 76.1982 210.602 76.0499 209.691 76.0499C208.78 76.0499 207.861 76.1982 207.005 76.4846C207.005 76.4846 204.948 74.7661 204.054 75.1037C203.468 76.8784 203.831 78.2441 203.943 78.5765C203.258 79.4818 202.839 80.1876 202.839 81.589C202.839 86.5247 205.358 86.9185 207.749 87.2407C207.356 87.6448 207.022 88.412 207.022 89.6139C207.022 91.3376 207.035 93.4704 207.035 93.8898C207.035 94.2222 206.838 94.6263 206.295 94.5087C202.018 92.8106 199.118 87.9568 199.118 82.2846C199.118 75.1906 203.93 69.8049 209.862 69.8049ZM216.176 87.4453C216.231 87.4965 216.218 87.6141 216.146 87.7113C216.077 87.7931 215.979 87.8289 215.923 87.7624C215.868 87.7113 215.881 87.5937 215.953 87.4965C216.022 87.4146 216.12 87.3788 216.176 87.4453ZM216.638 87.031C216.668 87.0975 216.625 87.1794 216.539 87.2305C216.471 87.2817 216.385 87.2663 216.355 87.1947C216.325 87.1282 216.368 87.0464 216.454 86.9952C216.539 86.9645 216.608 86.9799 216.638 87.031ZM215.252 88.8519C215.32 88.9183 215.295 89.0718 215.196 89.169C215.098 89.2866 214.974 89.3019 214.918 89.2201C214.863 89.1536 214.888 89.0002 214.974 88.903C215.068 88.7854 215.196 88.77 215.252 88.8519ZM215.739 88.1C215.808 88.1511 215.808 88.2841 215.739 88.4018C215.671 88.5194 215.555 88.5705 215.5 88.5194C215.431 88.4529 215.431 88.3199 215.5 88.2023C215.56 88.0847 215.671 88.0335 215.739 88.1Z" fill="#387F7D" fill-opacity="0.1"/>
</g>
<g clip-path="url(#clip15_1_57)">
<path d="M244.372 35.837L232.187 21.3308C231.85 20.9297 231.392 20.7044 230.915 20.7044C230.439 20.7044 229.981 20.9297 229.644 21.3308L227.111 24.3441L230.321 28.1649C232.007 27.4871 233.603 29.4086 233.024 31.4043L236.119 35.0872C238.252 34.2121 239.931 37.3863 238.329 39.2915C236.678 41.2561 233.954 39.0787 234.839 36.5223L231.951 33.0893V42.126C233.528 43.056 233.338 45.2297 232.517 46.205C232.116 46.6822 231.572 46.9504 231.005 46.9504C230.437 46.9504 229.893 46.6822 229.492 46.205C228.397 44.8997 228.802 42.726 230.193 42.0519V32.9299C228.897 32.2987 228.66 30.6501 229.032 29.5925L225.867 25.8214L217.51 35.7695C217.173 36.1709 216.983 36.7153 216.983 37.2828C216.983 37.8504 217.173 38.3947 217.51 38.7961L229.698 53.3023C230.035 53.7034 230.493 53.9287 230.969 53.9287C231.446 53.9287 231.903 53.7034 232.24 53.3023L244.372 38.8636C244.709 38.4622 244.898 37.9179 244.898 37.3503C244.898 36.7827 244.709 36.2384 244.372 35.837V35.837Z" fill="#664B44" fill-opacity="0.1"/>
</g>
<path d="M83.7312 107.446V132.651H103.83V107.446H83.7312ZM94.6688 127.103C94.6688 129.556 93.5203 130.676 91.8469 130.676C90.3351 130.676 89.4602 129.697 89.0116 128.51L90.5504 127.345C90.8465 128.004 91.1157 128.561 91.7662 128.561C92.3853 128.561 92.7801 128.257 92.7801 127.07V119.019H94.6688V127.103ZM99.1372 130.676C97.383 130.676 96.248 129.63 95.6962 128.257L97.235 127.143C97.6387 127.97 98.1681 128.583 99.0968 128.583C99.8774 128.583 100.38 128.094 100.38 127.413C100.38 126.603 99.8684 126.316 99.0026 125.838L98.5315 125.584C97.1677 124.859 96.2659 123.942 96.2659 122.012C96.2659 120.234 97.3471 118.884 99.0295 118.884C100.232 118.884 101.093 119.407 101.712 120.78L100.241 121.961C99.9178 121.235 99.5679 120.948 99.025 120.948C98.4732 120.948 98.1233 121.387 98.1233 121.961C98.1233 122.67 98.4732 122.957 99.2852 123.401L99.7563 123.655C101.362 124.515 102.264 125.399 102.264 127.379C102.264 129.506 100.927 130.676 99.1372 130.676Z" fill="#664B44" fill-opacity="0.1"/>
<path d="M281.222 124.107L255.173 144.933C253.96 145.903 253.637 147.828 254.448 149.223L264.08 165.789C264.894 167.19 266.54 167.54 267.753 166.57L293.807 145.739C295.02 144.769 295.343 142.845 294.527 141.453L284.892 124.882C284.081 123.487 282.435 123.137 281.222 124.107V124.107ZM278.709 150.382L275.784 152.721L271.95 146.127L271.481 152.692L266.099 150.806L269.933 157.399L266.998 159.745L260.315 148.251L263.24 145.912L268.622 147.798L269.091 141.234L272.017 138.895L278.7 150.389L278.709 150.382ZM285.244 145.406L277.413 142.999L280.339 140.66L276.997 134.913L279.923 132.574L283.264 138.321L286.19 135.982L285.244 145.406Z" fill="#387F7D" fill-opacity="0.1"/>
<path d="M34.4453 84.2976L10.5525 70.1902C9.43992 69.5333 8.08801 70.045 7.53739 71.3274L1.00152 86.5486C0.448733 87.8359 0.90318 89.4142 2.01579 90.0712L25.9129 104.181C27.0255 104.838 28.3774 104.326 28.9237 103.041L35.4617 87.8152C36.0124 86.5329 35.5579 84.9546 34.4453 84.2976ZM16.7702 92.9417L14.0869 91.3574L16.6882 85.2992L12.3378 87.5971L11.3215 82.1304L8.72017 88.1886L6.02808 86.5991L10.5631 76.0376L13.2464 77.622L14.2628 83.0887L18.6132 80.7908L21.2965 82.3751L16.7615 92.9366L16.7702 92.9417ZM22.6064 96.5839L20.9139 88.7688L23.5973 90.3532L25.8648 85.0724L28.5481 86.6568L26.2806 91.9376L28.964 93.5219L22.6064 96.5839Z" fill="#664B44" fill-opacity="0.1"/>
<defs>
<clipPath id="clip0_1_57">
<rect width="23.3397" height="20.2343" fill="white" transform="matrix(0.83078 -0.556601 0.438004 0.898973 88.5757 19.5377)"/>
</clipPath>
<clipPath id="clip1_1_57">
<rect width="23.2997" height="20.2637" fill="white" transform="matrix(0.837687 -0.546151 0.428421 0.903579 152.221 63.7899)"/>
</clipPath>
<clipPath id="clip2_1_57">
<rect width="21.0639" height="32.2477" fill="white" transform="matrix(0.996538 -0.0831406 0.0605612 0.998164 180 142.751)"/>
</clipPath>
<clipPath id="clip3_1_57">
<rect width="24.5507" height="27.7116" fill="white" transform="matrix(0.165838 -0.986153 0.97429 0.225296 56 90.2108)"/>
</clipPath>
<clipPath id="clip4_1_57">
<rect width="20.0986" height="28.8058" fill="white" transform="translate(289 71)"/>
</clipPath>
<clipPath id="clip5_1_57">
<rect width="21.3324" height="22.4577" fill="white" transform="matrix(0.766928 -0.641733 0.519836 0.854266 127.656 96.179)"/>
</clipPath>
<clipPath id="clip6_1_57">
<rect width="21.3324" height="22.4577" fill="white" transform="matrix(0.766928 -0.641733 0.519836 0.854266 37.2126 18.9272)"/>
</clipPath>
<clipPath id="clip7_1_57">
<rect width="13.3991" height="20.9496" fill="white" transform="translate(143 148)"/>
</clipPath>
<clipPath id="clip8_1_57">
<rect width="22.3318" height="22.259" fill="white" transform="translate(269.463 18.331)"/>
</clipPath>
<clipPath id="clip9_1_57">
<rect width="24.565" height="26.187" fill="white" transform="translate(24 139)"/>
</clipPath>
<clipPath id="clip10_1_57">
<rect width="24.565" height="26.187" fill="white" transform="translate(146.638)"/>
</clipPath>
<clipPath id="clip11_1_57">
<rect width="29.0313" height="27.4964" fill="white" transform="translate(240.432 107.367)"/>
</clipPath>
<clipPath id="clip12_1_57">
<rect width="29.0313" height="27.4964" fill="white" transform="translate(65 151)"/>
</clipPath>
<clipPath id="clip13_1_57">
<rect width="21.2152" height="26.187" fill="white" transform="matrix(-1 0 0 1 209.167 10.4748)"/>
</clipPath>
<clipPath id="clip14_1_57">
<rect width="21.2152" height="26.187" fill="white" transform="matrix(-1 0 0 1 220.333 69.3957)"/>
</clipPath>
<clipPath id="clip15_1_57">
<rect width="27.9147" height="37.9712" fill="white" transform="translate(216.983 18.331)"/>
</clipPath>
</defs>
</svg>
